<?xml version="1.0"?>
<svg xmlns="http://www.w3.org/2000/svg" height="512px" viewBox="0 0 384 384" width="512px"><g><path d="m192 0c-105.871094 0-192 86.128906-192 192s86.128906 192 192 192 192-86.128906 192-192-86.128906-192-192-192zm0 352c-88.222656 0-160-71.777344-160-160s71.777344-160 160-160 160 71.777344 160 160-71.777344 160-160 160zm0 0" data-original="#000000" class="active-path" data-old_color="#000000" fill="#B6C3C9"/><path d="m102.703125 281.296875 133.945313-44.648437 44.648437-133.945313-133.945313 44.648437zm69.945313-108.648437 58.054687-19.351563-19.351563 58.054687-58.054687 19.351563zm0 0" data-original="#000000" class="active-path" data-old_color="#000000" fill="#B6C3C9"/></g> </svg>
